<?xml version="1.0" standalone="no"?>
<!DOCTYPE svg PUBLIC "-//W3C//DTD SVG 1.1//EN" "http://www.w3.org/Graphics/SVG/1.1/DTD/svg11.dtd" >
<!--
2013-9-30: Created.
-->
<svg>
<metadata>
Created by iconfont
</metadata>
<defs>

<font id="iconfont" horiz-adv-x="1024" >
  <font-face
    font-family="iconfont"
    font-weight="500"
    font-stretch="normal"
    units-per-em="1024"
    ascent="896"
    descent="-128"
  />
    <missing-glyph />
    
    <glyph glyph-name="ttpodicon" unicode="&#59055;" d="M795.049564 749.239608 229.395574 749.239608c-91.169419 0-165.078733-73.918523-165.078733-165.102269l0-446.319092c0-91.168396 73.9175-165.102269 165.078733-165.102269l259.149225 0 0-71.932286-156.033729 0c-31.57002 0-31.57002-47.354518 0-47.354518l359.422999 0c31.57002 0 31.57002 47.354518 0 47.354518l-156.033729 0 0 71.932286 259.149225 0c91.161233 0 165.078733 73.934896 165.078733 165.102269L960.128297 584.136316C960.128297 675.321084 886.218984 749.239608 795.049564 749.239608zM912.773779 137.817224c0-65.016783-52.718689-117.747751-117.724215-117.747751L229.395574 20.069473c-65.005526 0-117.724215 52.730968-117.724215 117.747751L111.671359 584.136316c0 65.032132 52.709479 117.747751 117.724215 117.747751l565.653991 0c65.014736 0 117.724215-52.715619 117.724215-117.747751L912.773779 137.817224zM641.999796 420.145357l-161.15333 96.014774c-53.946656 32.160467-105.194854 3.027963-105.194854-59.787688l0-195.883319c0-62.814628 51.248198-91.948155 105.19997-59.784618l161.145144 96.033193C695.571922 328.678156 695.571922 388.207971 641.999796 420.145357zM617.751532 337.417191l-161.145144-96.033193c-22.3838-13.343913-33.600259-6.967692-33.600259 19.107173L423.00613 456.373467c0 26.074865 11.216459 32.451086 33.597189 19.10922l161.15333-96.014774C640.514979 365.899896 640.514979 350.987255 617.751532 337.417191z"  horiz-adv-x="1024" />

    
    <glyph glyph-name="mv" unicode="&#58884;" d="M945.381431 680.099924 78.127382 680.099924c-39.84959 0-72.374354-32.428573-72.374354-72.432683l0-614.137215c0-40.062438 32.402991-72.432683 72.374354-72.432683l867.253026 0c39.84959 0 72.374354 32.428573 72.374354 72.432683l0 614.137215C1017.755786 647.728656 985.352795 680.099924 945.381431 680.099924zM981.612611-6.469973c0-19.99745-16.298198-36.289508-36.231179-36.289508L78.127382-42.759481c-20.028149 0-36.231179 16.207124-36.231179 36.289508l0 614.137215c0 19.99745 16.298198 36.289508 36.231179 36.289508l867.253026 0c20.028149 0 36.231179-16.207124 36.231179-36.289508L981.611587-6.469973zM320.768631 194.234141 210.080669 469.224146 130.523729 469.224146 130.523729 131.973122 182.90268 131.973122 182.90268 418.574582 291.614637 131.973122 345.228719 131.973122 450.233238 418.574582 450.233238 131.973122 502.613212 131.973122 502.613212 469.224146 423.056272 469.224146ZM718.059076 182.375046 602.676186 469.224146 540.414143 469.224146 685.197644 131.973122 749.189074 131.973122 892.985084 469.224146 834.92269 469.224146Z"  horiz-adv-x="1024" />

    
    <glyph glyph-name="caidan" unicode="&#58937;" d="M63.311443 767.331525l895.360178 0 0-68.38039-895.360178 0 0 68.38039ZM63.311443 418.681894l895.360178 0 0-68.38039-895.360178 0 0 68.38039ZM63.311443 1.454374 63.311443 69.833741 958.671621 69.833741 958.671621 1.454374Z"  horiz-adv-x="1024" />

    
    <glyph glyph-name="qun" unicode="&#59010;" d="M473.177357 342.230026c49.776324 35.086417 82.382903 92.932309 82.382903 158.482274 0 107.105849-86.831525 193.937374-193.935249 193.937374s-193.935249-86.831525-193.935249-193.937374c0-69.533219 36.692893-130.32538 91.66689-164.559684C152.692798 293.434374 75.248321 193.390858 65.370405 74.054753l51.89598 0c12.982495 130.662187 123.188673 232.722298 257.289059 232.722298s244.305502-102.061174 257.289059-232.722298l51.948042 0C673.395075 199.52033 588.323024 303.597036 473.177357 342.230026zM361.625012 358.494535c-78.556897 0-142.218828 63.662993-142.218828 142.217766 0 78.55796 63.662993 142.219891 142.218828 142.219891 78.556897 0 142.218828-63.662993 142.218828-142.219891C503.844902 422.155403 440.182971 358.494535 361.625012 358.494535zM754.434998 342.230026c49.776324 35.086417 82.382903 92.932309 82.382903 158.482274 0 107.105849-86.831525 193.937374-193.935249 193.937374-32.271896 0-62.697195-7.894258-89.468611-21.840426 18.026108-9.391298 34.391552-21.529118 48.541718-35.863093 12.962308 3.88763 26.699167 5.986036 40.927955 5.986036 78.556897 0 142.218828-63.662993 142.218828-142.219891 0.001062-78.556897-63.661931-142.217766-142.218828-142.217766-14.276601 0-28.055959 2.112219-41.056516 6.023223-8.090818-8.176879-16.899874-15.641893-26.32836-22.287732 25.936303-8.700683 50.339441-20.735442 72.714297-35.573035 2.525525 0.072249 5.056363 0.120061 7.598887 0.120061 134.100386 0 244.305502-102.061174 257.289059-232.722298l51.94698 0C954.652716 199.52033 869.580665 303.597036 754.434998 342.230026z"  horiz-adv-x="1025" />

    
    <glyph glyph-name="duihuakuang" unicode="&#58927;" d="M2.198036 749.322359l-1.108241 16.882506-1.089821-17.302061 0.491187-7.79043 0-18.251689 0.024559-0.599657c0.010233-0.249687 0.25378-6.132674 0.581238-6.39464 0.007163-0.00614 0.013303-0.008186 0.020466-0.008186 0.321318 0 0.528026 6.009877 0.537236 6.271844l0.020466 0.592494 0 18.215874L2.198036 749.322359 2.198036 749.322359zM1.090819 761.771903l0.822738-12.538571-0.823761-13.1853-0.809435 12.856819L1.090819 761.771903 1.090819 761.771903zM1.54926 724.53686c-0.055259-1.357927-0.223081-4.848425-0.450255-4.680603-0.231267 0.185218-0.419556 3.669576-0.484024 5.033643L0.614981 739.134323l0.474814-7.544837 0.459464 7.354502L1.54926 724.53686 1.54926 724.53686zM1.54926 724.53686M699.554604 1.451304c-5.628184 0-10.980076 2.041496-15.173584 5.792936L486.108281 175.389822 241.311949 175.389822c-41.718147 0-75.656097 33.82334-75.656097 75.656097L165.655852 699.078025c0 41.664935 33.93795 75.65712 75.656097 75.65712l727.153198 0c41.828664 0 75.766614-33.993209 75.766614-75.65712l0-448.087365c0-41.831734-33.93795-75.656097-75.766614-75.656097L725.767616 175.334563l-2.594081-150.597927c-0.10847-9.270131-5.628184-17.328667-13.905708-21.025872C706.232701 2.221854 702.754483 1.451304 699.554604 1.451304L699.554604 1.451304 699.554604 1.451304zM241.311949 727.387791c-15.560394 0-28.308743-12.69309-28.308743-28.365025l0-448.091458c0-15.724123 12.748349-28.362978 28.308743-28.362978L494.549534 222.568331c5.684466 0 11.035334-2.042519 15.34243-5.629207l166.708859-141.599995 2.152013 123.94387c0.327458 12.912078 10.761088 23.285333 23.61893 23.285333l266.094404 0c15.616676 0 28.473495 12.639878 28.473495 28.362978L996.939665 699.02379c0 15.616676-12.803607 28.365025-28.473495 28.365025L241.311949 727.388814 241.311949 727.387791 241.311949 727.387791zM463.204642 591.471239l283.643082 0 0-47.237861L463.204642 544.233378 463.204642 591.471239 463.204642 591.471239 463.204642 591.471239zM463.204642 461.458139l283.643082 0 0-47.288003L463.204642 414.170137 463.204642 461.458139 463.204642 461.458139 463.204642 461.458139zM463.204642 461.458139"  horiz-adv-x="1122" />

    
    <glyph glyph-name="paixingbang" unicode="&#59001;" d="M916.262-2.667 107.72-2.667c-9.72 0-15.1-2.195-17.595-12.475-2.297-9.465 7.875-17.615 17.595-17.615l808.542 0c9.76 0 15.94 2.25 17.615 12.495C935.447-10.667 926.022-2.667 916.262-2.667zM714.117 48.103l197.026 0c9.76 0 17.615 7.875 17.6 17.615L928.743 338.448c0 9.74-7.84 17.61-17.615 17.61L714.112 356.058c-9.75 0-12.47-7.87-12.47-17.61l0-272.751c0-9.72 2.715-17.595 12.47-17.595L714.117 48.102zM731.732 325.973l166.92 0 0-247.786-166.92 0L731.732 325.973zM416.046 48.103l191.891 0c9.775 0 17.615 7.875 17.615 17.615L625.552 788.28c0 9.72-7.84 12.475-17.615 12.475L416.046 800.755c-9.72 0-17.595-2.755-17.595-12.475l0-722.562C398.451 55.978 406.326 48.103 416.046 48.103zM428.541 770.665l166.92 0 0-692.477-166.92 0L428.541 770.665zM107.72 48.103l197.03 0c9.72 0 17.613 7.875 17.578 17.615L322.328 500.169c0 9.702-7.893 17.595-17.598 17.595L107.72 517.764c-9.72 0-12.475-7.875-12.475-17.595l0-434.451C95.245 55.978 98 48.103 107.72 48.103L107.72 48.103zM125.335 487.674l166.92 0 0-409.466-166.92 0L125.335 487.674z"  horiz-adv-x="1024" />

    
    <glyph glyph-name="yinleku" unicode="&#58911;" d="M891.936768 830.368768c7.588864-1.819648 15.059968-3.782656 21.398528-8.797184 10.614784-8.3968 15.822848-19.391488 16.434176-32.7424 0.091136-1.992704 0.039936-3.9936 0.039936-5.9904 0.001024-209.521664-0.157696-419.043328 0.217088-628.563968 0.043008-24.177664-10.13248-41.71776-28.491776-55.673856-20.681728-15.722496-44.459008-24.49408-69.614592-29.58336-46.702592-9.448448-92.951552-7.82848-138.277888 7.625728-20.657152 7.043072-39.847936 16.920576-54.690816 33.513472-22.308864 24.93952-20.530176 54.91712 4.189184 77.815808 18.04288 16.714752 39.688192 26.611712 63.004672 32.976896 44.695552 12.201984 89.643008 12.531712 134.659072 1.492992 1.596416-0.391168 3.233792-0.617472 5.190656-0.984064 0 115.844096 0 231.441408 0 347.86816-7.535616-1.573888-14.915584-3.054592-22.267904-4.658176-148.85376-32.48128-297.698304-65.007616-446.58688-97.328128-4.789248-1.03936-5.508096-3.021824-5.505024-7.29088 0.099328-143.619072-0.183296-287.240192 0.33792-430.85824 0.089088-24.635392-10.19904-42.351616-28.916736-56.456192-21.169152-15.951872-45.500416-24.650752-71.181312-29.66528-46.435328-9.066496-92.345344-7.146496-137.276416 8.425472-20.151296 6.984704-38.892544 16.68608-53.413888 32.822272-22.745088 25.274368-20.861952 55.569408 4.345856 78.532608 19.878912 18.108416 43.771904 28.120064 69.402624 34.371584 42.614784 10.395648 85.307392 10.042368 127.936512-0.227328 1.557504-0.374784 3.147776-0.616448 5.49888-1.07008 0 3.03616 0 5.470208 0 7.90528 0 183.72608 0.16384 367.453184-0.202752 551.179264-0.047104 23.646208 8.326144 36.51584 30.640128 45.344768 14.388224 5.69344 29.975552 8.5248 45.177856 11.96032 122.351616 27.648 244.740096 55.134208 367.117312 82.670592 50.572288 11.379712 101.144576 22.7584 151.709696 34.164736 1.08032 0.243712 2.089984 0.806912 3.132416 1.220608C887.943168 830.368768 889.939968 830.368768 891.936768 830.368768z"  horiz-adv-x="1024" />

    
    <glyph glyph-name="weibiaoti1" unicode="&#58910;" d="M512 896c-282.767 0-512-229.233-512-512s229.233-512 512-512 512 229.233 512 512-229.233 512-512 512zM145.746 150.528l111.043 33.874v7.199c1.28-0.215 2.427-0.758 3.768-0.758 13.015 0 23.562 10.547 23.562 23.562 0 13.015-10.547 23.562-23.562 23.562-1.341 0-2.488-0.543-3.768-0.758v8.028c-26.112 17.449-47.944 43.448-63.293 75.295-26.143 6.482-46.029 35.42-46.029 70.84 0 23.634 8.858 44.411 22.497 57.61 7.711 98.56 69.724 176.845 147.558 186.030l-16.394-41.226c-51.702-15.636-92.129-68.076-102.359-134.656 0.758 0.164 1.454 0.512 2.222 0.625v-40.387c-9.882-3.912-17.193-15.278-17.193-29.245 0-13.957 7.311-25.324 17.193-29.235v-5.427h7.025c15.759-44.892 46.121-79.636 83.405-94.689 2.714-8.397 21.924-11.387 21.924-23.081 0-3.779-0.072-7.598-0.164-11.407-0.973 0.154-1.884 0.532-2.847 0.707 0.512-2.816 0.881-5.693 0.881-8.673 0-21.361-13.865-49.203-33.024-55.736l2.765-6.687-107.54-33.024-27.668 27.658zM783.606 43.469l-203.080 90.563 2.918 7.086c-21.115 10.086-35.809 31.457-35.809 56.412 0 12.083 3.584 23.265 9.513 32.84 1.853 9.134 6.38 15.268 16.261 25.006 45.056 20.716 81.715 63.672 101.089 118.886h14.428v6.984c12.728 5.048 22.159 19.702 22.159 37.683 0 17.992-9.421 32.635-22.159 37.683v18.586c-4.321 118.436-80.773 212.992-175.206 212.992-85.617 0-156.805-77.588-172.616-180.326 0.942 0.205 1.823 0.645 2.785 0.799v-52.050c-12.728-5.048-22.159-19.692-22.159-37.683 0-17.981 9.421-32.635 22.159-37.683v-6.984h9.052c20.306-57.856 59.433-102.615 107.479-122.030 3.492-10.813 28.242-14.674 28.242-29.737 0-4.864-0.092-9.789-0.205-14.705-1.26 0.205-2.427 0.686-3.666 0.922 0.655-3.635 1.126-7.352 1.126-11.172 0-27.525-17.869-50.657-42.557-59.085l3.553-8.622-185.498-77.814-29.245 29.245 186.409 78.193v9.646c1.597-0.266 3.041-0.952 4.71-0.952 16.271 0 29.45 13.189 29.45 29.46s-13.189 29.46-29.45 29.46c-1.669 0-3.113-0.676-4.71-0.952v10.035c-32.655 21.811-59.924 54.313-79.114 94.116-32.686 8.1-57.539 44.278-57.539 88.556 0 29.542 11.080 55.511 28.119 72.008 10.26 131.205 97.516 233.697 203.653 233.697 104.786 0 191.037-99.932 203.1-228.71 20.357-15.872 34.099-44.165 34.099-76.984 0-46.295-27.064-84.101-61.962-89.815v3.267c-18.033-38.144-43.479-69.693-73.964-91.761v-14.408c-1.587 0.266-3.041 0.952-4.7 0.952-16.271 0-29.46-13.189-29.46-29.46s13.189-29.46 29.46-29.46c1.669 0 3.113 0.676 4.7 0.952v-8.53l197.612-88.125-28.979-28.979zM850.586 122.88l-107.53 33.034 2.755 6.687c-19.159 6.533-33.024 34.376-33.024 55.736 0 2.98 0.369 5.847 0.881 8.673-0.973-0.174-1.884-0.553-2.847-0.707-0.082 3.809-0.164 7.629-0.164 11.407 0 11.694 19.21 14.684 21.924 23.081 37.284 15.053 67.645 49.797 83.405 94.689h7.025v5.427c9.882 3.912 17.193 15.278 17.193 29.235 0 13.967-7.311 25.334-17.193 29.245l0 40.387c0.768-0.123 1.475-0.461 2.222-0.625-10.23 66.591-50.657 119.020-102.349 134.676l-16.394 41.226c77.834-9.185 139.848-87.47 147.558-186.030 13.629-13.189 22.497-33.966 22.497-57.61-0.010-35.451-19.896-64.389-46.039-70.871-15.35-31.846-37.171-57.846-63.293-75.295v-8.028c-1.28 0.215-2.427 0.758-3.768 0.758-13.015 0-23.562-10.547-23.562-23.562s10.547-23.562 23.562-23.562c1.341 0 2.488 0.543 3.768 0.758v-7.199l111.043-33.874-27.668-27.658z"  horiz-adv-x="1024" />

    
    <glyph glyph-name="mima" unicode="&#58964;" d="M779.821998 528.013434l-5.15869 0c-2.579345 0-2.579345 0-5.15869 0L769.504618 623.449202C770.3644 779.069689 657.732997 896 508.990764 896c-146.162888 0-257.934509-116.930311-257.934509-272.550798l0-95.435768-7.738035 0c-78.240134 0-141.004198-66.203191-141.004198-143.583543l0-367.986566c0-80.819479 63.623846-143.583543 141.004198-143.583543l536.503778 0c78.240134 0 141.004198 66.203191 141.004198 143.583543L920.826196 384.429891C919.106633 464.389589 855.482788 528.013434 779.821998 528.013434zM294.905122 625.168766c0 134.125945 90.277078 228.701931 214.085642 228.701931 126.387909 0 216.664987-97.155332 216.664987-228.701931l0-95.435768L292.325777 529.732997 292.325777 625.168766 294.905122 625.168766zM877.837112 16.443325c0-55.88581-43.848866-102.314022-97.155332-102.314022L243.31822-85.870697c-53.306465 0-97.155332 46.428212-97.155332 102.314022L146.162888 384.429891c0 55.88581 43.848866 102.314022 97.155332 102.314022L257.934509 486.743913l36.970613 0 434.189757 0 51.586902 0 0 0c53.306465 0 97.155332-46.428212 97.155332-102.314022L877.837112 16.443325 877.837112 16.443325zM507.271201 328.544081c-34.391268 0-61.0445-29.232578-61.0445-63.623846 0-24.073887 12.036944-43.848866 31.811923-55.88581l0-104.893367c0-17.195634 14.616289-31.811923 31.811923-31.811923s31.811923 14.616289 31.811923 31.811923L541.662469 209.034425c19.774979 12.036944 31.811923 31.811923 31.811923 55.88581C567.455919 298.451721 540.802687 328.544081 507.271201 328.544081z"  horiz-adv-x="1024" />

    
    <glyph glyph-name="qun1" unicode="&#59113;" d="M512.032-27.232c-85.952 0.096-237.856 10.4-290.368 78.496-17.76 23.04-23.04 50.912-15.264 80.64 16.768 64.096 92.448 108.512 208.896 123.424l0 12.256c-37.056 29.408-65.728 78.272-79.456 136.32-6.944 29.216-17.344 107.936-5.152 164.768 16.992 79.456 66.816 123.968 144.064 128.736 18.592 1.152 55.296 1.344 74.752-0.032 77.28-5.6 127.008-50.08 143.808-128.704 12.192-56.832 1.792-135.552-5.152-164.768-13.76-58.016-42.4-106.912-79.456-136.32l0-12.256c116.48-14.944 192.128-59.328 208.896-123.392 0 0 0 0 0-0.032 7.776-29.728 2.496-57.6-15.264-80.64C749.824-16.832 597.92-27.168 512.032-27.232zM513.728 650.336c-13.536 0-27.296-0.32-36.032-0.864-54.976-3.36-87.712-33.088-100.064-90.88-9.44-44.096-2.656-111.776 4.896-143.648 12.128-51.04 38.304-94.08 70.048-115.2 6.688-4.48 10.72-11.968 10.72-20l0-45.952c0-12.416-9.44-22.752-21.792-23.904-104.352-9.696-176.672-44.256-188.672-90.176-4.032-15.424-1.888-27.872 6.816-39.168 28.768-37.312 123.136-59.68 252.384-59.808 129.184 0.128 223.52 22.496 252.32 59.808 8.672 11.296 10.848 23.712 6.816 39.2-12.032 45.92-84.352 80.48-188.672 90.144-12.352 1.152-21.792 11.488-21.792 23.904l0 45.952c0 8.032 4.032 15.52 10.72 20 31.744 21.088 57.952 64.16 70.048 115.2 7.552 31.872 14.336 99.552 4.896 143.648-12.416 57.984-44.288 86.848-100.32 90.912C538.016 650.08 525.984 650.336 513.728 650.336zM964.064 199.616c-10.624 0-20.352 7.136-23.2 17.92-12.032 45.952-84.352 80.512-188.672 90.144-12.352 1.152-21.792 11.488-21.792 23.904l0 45.984c0 8.032 4.032 15.52 10.72 20 31.776 21.088 57.984 64.16 70.048 115.2 7.552 31.872 14.336 99.552 4.896 143.648-11.936 55.68-43.264 83.776-101.568 91.04-13.152 1.632-22.496 13.632-20.832 26.784 1.632 13.184 13.792 22.496 26.784 20.832 78.368-9.76 126.336-53.024 142.56-128.608 12.192-56.832 1.792-135.552-5.152-164.768-13.76-58.016-42.368-106.912-79.456-136.32l0-12.288c116.48-14.88 192.096-59.296 208.896-123.36 3.328-12.832-4.32-25.952-17.12-29.312C968.128 199.872 966.08 199.616 964.064 199.616zM59.936 199.616c-2.016 0-4.064 0.256-6.112 0.768-12.8 3.36-20.48 16.48-17.12 29.312 16.8 64.096 92.448 108.512 208.896 123.36l0 12.288c-37.088 29.408-65.728 78.272-79.456 136.32C159.2 530.912 148.768 609.632 160.96 666.464c16.224 75.552 64.192 118.848 142.56 128.608 12.928 1.472 25.152-7.68 26.784-20.832 1.664-13.152-7.68-25.152-20.832-26.784C251.168 740.192 219.84 712.096 207.904 656.416 198.464 612.32 205.248 544.64 212.8 512.768c12.096-51.04 38.272-94.08 70.048-115.2 6.688-4.48 10.72-11.968 10.72-20l0-45.984c0-12.416-9.44-22.752-21.792-23.904-104.352-9.664-176.672-44.224-188.672-90.144C80.288 206.752 70.56 199.616 59.936 199.616z"  horiz-adv-x="1024" />

    
    <glyph glyph-name="gou" unicode="&#58960;" d="M1396.363636 774.981818c0 0-223.418182-74.472727-484.072727-372.363636-242.036364-269.963636-297.890909-381.672727-390.981818-530.618182C512-118.690909 372.363636 151.272727 0 346.763636l195.490909 186.181818c0 0 176.872727-121.018182 297.890909-344.436364 0 0 307.2 474.763636 902.981818 707.490909L1396.363636 774.981818 1396.363636 774.981818zM1396.363636 774.981818"  horiz-adv-x="1397" />

    
    <glyph glyph-name="icon" unicode="&#58890;" d="M511.994883-127.989767c-282.313807 0-511.994883 229.6821-511.994883 511.994883S229.6821 896 511.994883 896c282.32097 0 512.002047-229.681076 512.002047-511.994883S794.315854-127.989767 511.994883-127.989767zM511.994883 805.648203c-232.497215 0-421.643086-189.144848-421.643086-421.643086s189.144848-421.643086 421.643086-421.643086 421.650249 189.144848 421.650249 421.643086S744.493122 805.648203 511.994883 805.648203zM749.515508 403.894096c-31.683607-0.007163-63.36005 12.051477-87.47733 36.175921-48.234561 48.234561-48.234561 126.711913 0 174.946474 17.632589 17.646915 46.249347 17.646915 63.881936 0 17.646915-17.639752 17.646915-46.242184 0-63.881936-13.000082-13.007245-13.000082-34.17638 0-47.183626 13.021571-13.007245 34.17638-12.992919 47.183626 0l110.594841 110.594841c17.639752 17.639752 46.249347 17.632589 63.889099-0.007163 17.639752-17.639752 17.639752-46.242184-0.007163-63.889099L836.984652 440.062853C812.874535 415.953759 781.183765 403.894096 749.515508 403.894096zM525.627369 403.894096c-31.683607-0.007163-63.36005 12.051477-87.47733 36.175921-48.234561 48.234561-48.234561 126.711913 0 174.946474 17.632589 17.646915 46.249347 17.646915 63.881936 0 17.646915-17.639752 17.646915-46.242184 0-63.881936-6.294356-6.30152-9.764388-14.683421-9.764388-23.595394 0-8.904811 3.471055-17.286712 9.764388-23.588231 12.610202-12.58769 34.58775-12.595876 47.183626 0l155.770739 155.770739c17.632589 17.639752 46.242184 17.632589 63.889099-0.007163 17.639752-17.639752 17.639752-46.242184-0.007163-63.889099L613.097536 440.062853C588.987419 415.953759 557.296649 403.894096 525.627369 403.894096zM296.754704 403.894096c-31.683607-0.007163-63.36005 12.051477-87.47733 36.175921-48.234561 48.234561-48.234561 126.711913 0 174.946474 17.632589 17.646915 46.249347 17.646915 63.881936 0 17.646915-17.639752 17.646915-46.242184 0-63.881936-13.000082-13.007245-13.000082-34.17638 0-47.183626 13.021571-13.007245 34.17638-12.992919 47.183626 0l155.770739 155.770739c17.639752 17.639752 46.249347 17.632589 63.889099-0.007163s17.639752-46.242184-0.007163-63.889099L384.224872 440.062853C360.114754 415.953759 328.423985 403.894096 296.754704 403.894096zM370.246509 292.903236c0-29.831422-24.182772-54.014194-54.014194-54.014194-29.837562 0-54.021358 24.182772-54.021358 54.014194 0 29.837562 24.183795 54.021358 54.021358 54.021358C346.063737 346.924593 370.246509 322.739774 370.246509 292.903236zM761.771647 292.903236c0-29.831422-24.182772-54.014194-54.014194-54.014194-29.837562 0-54.021358 24.182772-54.021358 54.014194 0 29.837562 24.183795 54.021358 54.021358 54.021358C737.588875 346.924593 761.771647 322.739774 761.771647 292.903236zM511.994883 42.104189c-57.610092 0-104.476493 43.043329-104.476493 95.947236l0 27.242458c0 24.948205 20.227694 45.175899 45.175899 45.175899s45.175899-20.227694 45.175899-45.175899l0-27.242458c0.558725-1.352811 5.661953-5.595438 14.124695-5.595438 8.462742 0 13.56597 4.242627 14.175861 5.925966l-0.051165 26.91193c0 24.948205 20.227694 45.175899 45.175899 45.175899 24.948205 0 45.175899-20.227694 45.175899-45.175899l0-27.242458C616.4724 85.147518 569.604976 42.104189 511.994883 42.104189z"  horiz-adv-x="1025" />

    
    <glyph glyph-name="gengduo" unicode="&#58887;" d="M62.768067 444.163241h898.462842v-120.325459h-898.462842V444.163241zM447.865819 832.869171h128.267339v-897.738342H447.865819V832.869171z"  horiz-adv-x="1024" />

    
    <glyph glyph-name="xihuan" unicode="&#58949;" d="M511.997 891.057c-280.049 0-507.056-227.007-507.056-507.057 0-280.032 227.007-507.057 507.057-507.057 280.031 0 507.062 227.026 507.062 507.057-0.001 280.050-227.031 507.057-507.063 507.057zM511.999 103.016l-235.947 283.289c-18.657 18.053-32.83 40.627-40.757 65.961l18.129-38.447-6.419 10.817c-12.19 22.627-18.632 48.225-18.632 74.027 0 86.154 70.092 156.247 156.247 156.247 35.595 0 70.425-12.291 98.075-34.609 11.146-8.997 21.015-19.531 29.304-31.201 8.29 11.67 18.158 22.203 29.305 31.201 27.649 22.318 62.478 34.609 98.073 34.609 86.154 0 156.247-70.092 156.247-156.247 0-25.798-6.441-51.391-18.625-74.016l-0.379-0.669-6.461-10.822c-14.728-22.255-34.325-40.157-57.354-52.487l-200.806-257.652zM296.096 442.026l0.345-0.529c10.033-15.275 23.469-27.537 39.281-35.91l-22.234 15.72 0.969-1.168 197.541-237.174 198.52 238.348 1.082 1.028c12.905 12.239 22.702 27.63 28.167 44.943l-11.303-24.367c10.465 16.681 15.995 35.954 15.995 55.745 0 57.942-47.14 105.081-105.081 105.081-49.343 0-91.466-33.536-102.437-81.554l-0.219-0.859-24.72-54.136-24.843 54.562-0.099 0.433c-10.972 48.018-53.096 81.553-102.44 81.553-57.943 0-105.081-47.139-105.081-105.081 0-19.812 5.543-39.109 16.031-55.801l0.526-0.836z"  horiz-adv-x="1024" />

    
    <glyph glyph-name="mv1" unicode="&#59087;" d="M853.333333 725.333333h-682.666666c-62.577778 0-113.777778-51.2-113.777778-113.777777v-455.111112c0-62.577778 51.2-113.777778 113.777778-113.777777h682.666666c62.577778 0 113.777778 51.2 113.777778 113.777777v455.111112c0 62.577778-51.2 113.777778-113.777778 113.777777m56.888889-568.888889c0-34.133333-22.755556-56.888889-56.888889-56.888888h-682.666666c-34.133333 0-56.888889 22.755556-56.888889 56.888888v455.111112c0 34.133333 22.755556 56.888889 56.888889 56.888888h682.666666c34.133333 0 56.888889-22.755556 56.888889-56.888888v-455.111112m-512 56.888889l284.444445 170.666667-284.444445 170.666667v-341.333334"  horiz-adv-x="1024" />

    
    <glyph glyph-name="chacha" unicode="&#58968;" d="M86.016 896l-83.968-70.656c149.504-111.616 288.768-239.616 411.136-367.616-187.392-188.928-334.336-374.784-411.648-449.536l159.744-133.632c56.832 117.248 180.224 294.912 345.6 481.28 165.376-187.392 289.28-366.08 346.112-483.84 0 0 155.648 165.376 169.472 139.776C962.56 79.36 816.128 275.968 619.52 477.184c112.64 115.712 239.104 230.4 374.272 331.264l-36.864 68.608c-153.088-76.288-299.008-189.44-430.08-309.76-132.096 125.44-281.6 244.736-440.832 328.704z"  horiz-adv-x="1024" />

    
    <glyph glyph-name="gengduo1" unicode="&#58934;" d="M943.5 367.889c-8.836 0-16 7.163-16 16 0 53.019-42.981 96-96 96s-96-42.981-96-96 42.981-96 96-96c14.584 0 28.406 3.258 40.785 9.076a15.924 15.924 0 0 0 9.214 2.924c8.837 0 16-7.163 16-16 0-6.472-3.845-12.043-9.374-14.563l0.095-0.215c-17.096-8.465-36.353-13.222-56.722-13.222-70.692 0-128 57.308-128 128s57.308 128 128 128 128-57.308 128-128c0.002-8.837-7.161-16-15.998-16z m-432-112c-70.692 0-128 57.308-128 128s57.308 128 128 128 128-57.308 128-128-57.308-128-128-128z m0 224c-53.019 0-96-42.981-96-96s42.981-96 96-96 96 42.981 96 96-42.981 96-96 96z m-319-224c-70.692 0-128 57.308-128 128s57.308 128 128 128c70.692 0 128-57.308 128-128s-57.308-128-128-128z m0 224c-53.019 0-96-42.981-96-96s42.981-96 96-96 96 42.981 96 96-42.981 96-96 96z m728-148c8.836 0 16-7.163 16-16 0-8.836-7.163-16-16-16s-16 7.164-16 16 7.163 16 16 16z"  horiz-adv-x="1024" />

    
    <glyph glyph-name="changpian" unicode="&#58888;" d="M459.838061 393.681455c0 30.657939 24.948364 55.606303 55.606303 55.606303s55.544242-24.948364 55.544242-55.606303-24.886303-55.606303-55.544242-55.606303a55.668364 55.668364 0 0 0-55.606303 55.606303m173.242181 0c0 64.884364-52.751515 117.666909-117.635878 117.666909a117.79103 117.79103 0 0 1-117.666909-117.666909 117.79103 117.79103 0 0 1 117.666909-117.66691 117.76 117.76 0 0 1 117.604848 117.66691M515.413333-39.439515c-238.809212 0-433.089939 194.311758-433.089939 433.089939 0 238.840242 194.249697 433.18303 433.12097 433.183031 238.809212 0 433.12097-194.342788 433.120969-433.183031 0-238.778182-194.311758-433.089939-433.120969-433.089939m0 928.302545C242.346667 888.86303 20.262788 666.748121 20.262788 393.650424c0-273.035636 222.145939-495.181576 495.181576-495.181576s495.181576 222.17697 495.181575 495.181576c0 273.066667-222.17697 495.243636-495.181575 495.243637M806.353455 424.711758a31.030303 31.030303 0 0 1-31.030303-31.030303v-0.031031c0-143.297939-116.580848-259.847758-259.878788-259.847757a31.030303 31.030303 0 0 1 0-62.060606c177.493333 0 321.939394 144.41503 321.939394 321.939394a31.030303 31.030303 0 0 1-31.030303 31.030303M515.413333 653.560242a31.030303 31.030303 0 0 1 0 62.060606c-177.493333 0-321.877333-144.41503-321.908363-321.908363v-0.03103a31.030303 31.030303 0 0 1 62.060606 0c0 143.297939 116.580848 259.878788 259.878788 259.878787z"  horiz-adv-x="1024" />

    
    <glyph glyph-name="jia" unicode="&#59065;" d="M929.5 354l-835 0.3c-16.6 0-30 13.3-30 29.9 0 16.6 13.4 29.8 30 29.8l835-0.3c16.6 0 30-13.3 30-29.9 0-16.5-13.4-29.8-30-29.8zM511.8-64c-16.6 1-30 13.7-30 30.3l0.4 834.9c0 16.6 13.4 29.9 30 29.9s30-13.2 30-29.8l-0.4-835.1c0-16.7-13.4-30.2-30-30.2z"  horiz-adv-x="1024" />

    
    <glyph glyph-name="cainixihuan" unicode="&#58975;" d="M512.466 43.329c-6.679 0-13.36 1.709-19.263 5.281-2.019 1.243-49.555 30.292-109.984 76.739-15.69 12.117-18.331 34.332-5.903 49.711 12.428 15.223 35.263 17.865 50.954 5.748 34.953-26.875 65.555-47.845 84.353-60.118 101.596 65.866 309.602 228.201 309.602 363.196 0 157.985-147.578 167.929-148.975 167.929-37.594 0-81.867-5.748-131.11-73.477-6.834-9.321-17.865-14.913-29.671-14.913-11.807 0-22.835 5.593-29.671 14.913-49.244 67.731-93.518 73.477-131.11 73.477-1.553 0-148.975-9.942-148.975-167.929 0-58.721 40.39-130.645 116.975-208.162 13.981-13.981 13.515-36.506-0.932-50.021-14.448-13.515-37.439-13.050-51.264 0.932-91.033 92.119-137.324 178.646-137.324 257.25 0 180.355 149.286 238.609 221.522 238.609 45.671 0 103.459-8.544 160.626-67.731 57.167 59.186 114.956 67.731 160.626 67.731 72.236 0 221.522-58.41 221.522-238.609 0-212.977-348.283-426.421-363.040-435.275-5.748-3.572-12.428-5.281-18.951-5.281z"  horiz-adv-x="1024" />

    
    <glyph glyph-name="flyme_icon-" unicode="&#59020;" d="M832.496 20h-640V752h538.976l101.024-101.024V20z m-608 32h576V637.712L718.224 720H224.496v-668zM586.416 97.296c-51.408 0-93.232 39.264-93.232 87.552s41.824 87.552 93.232 87.552c24.672 0 47.92-8.96 65.488-25.216a16 16 0 1 0-21.744-23.472c-11.632 10.768-27.152 16.688-43.728 16.688-33.76 0-61.232-24.928-61.232-55.552s27.472-55.552 61.232-55.552c16.592 0 32.128 5.936 43.744 16.704a16 16 0 1 0 21.744-23.472c-17.552-16.256-40.816-25.232-65.504-25.232zM641.68 118.272a16 16 0 0 0-16 16l-0.128 378.544a16 16 0 1 0 32 0l0.128-378.544a16 16 0 0 0-16-16zM641.68 483.36a32 32 0 0 0-22 55.232l59.504 56.336a32 32 0 1 0 44-46.464l-59.504-56.336a31.84 31.84 0 0 0-22-8.768zM512 496H288a16 16 0 1 0 0 32h224a16 16 0 1 0 0-32zM416 288h-128a16 16 0 1 0 0 32h128a16 16 0 1 0 0-32z"  horiz-adv-x="1024" />

    
    <glyph glyph-name="lingsheng" unicode="&#58958;" d="M967.32194 177.526216a21.207961 21.207961 0 0 1 0 3.89534 21.640777 21.640777 0 0 1 0 3.895339 20.775146 20.775146 0 0 1 0 4.328156 21.640777 21.640777 0 0 1 0 3.895339 19.476699 19.476699 0 0 1 0 3.029709 553.571066 553.571066 0 0 0-143.261941 402.08563 259.68932 259.68932 0 0 1-150.619805 259.68932 346.252426 346.252426 0 0 1-312.92563 0 261.853397 261.853397 0 0 1-150.619806-259.68932 553.571066 553.571066 0 0 0-148.455728-400.787183 19.476699 19.476699 0 0 1 0-3.029709 21.640777 21.640777 0 0 1 0-3.89534 20.775146 20.775146 0 0 1 0-4.328155 21.640777 21.640777 0 0 1 0-3.89534 21.207961 21.207961 0 0 1 0-3.89534 20.775146 20.775146 0 0 1 0-3.895339l2.164078-3.462525a20.34233 20.34233 0 0 1 2.164078-3.029708 713.712813 713.712813 0 0 1 448.396892-148.455728 713.712813 713.712813 0 0 1 446.232814 146.29165 20.34233 20.34233 0 0 1 2.164078 3.029709l2.164077 3.462524a20.775146 20.775146 0 0 1 2.596893 4.760971z m-857.840385 8.65631a599.882328 599.882328 0 0 1 138.50097 415.502912 216.407766 216.407766 0 0 0 126.814951 216.407766 302.970873 302.970873 0 0 0 273.539417 0 216.407766 216.407766 0 0 0 126.814951-216.407766 599.882328 599.882328 0 0 1 138.933786-415.070096 708.951843 708.951843 0 0 0-805.036891 0zM609.81631-6.853201a21.640777 21.640777 0 0 1-21.640776-21.640777c0-30.297087-35.058058-55.833204-76.175534-55.833203s-76.175534 25.536116-76.175534 55.833203a21.640777 21.640777 0 1 1-43.281553 0 110.800776 110.800776 0 0 1 119.457087-99.114757 110.800776 110.800776 0 0 1 119.457087 99.114757 21.640777 21.640777 0 0 1-21.640777 21.640777z"  horiz-adv-x="1024" />

    
    <glyph glyph-name="ertong" unicode="&#58882;" d="M504.3 39.5c-141.5 0-266.9 92.4-309.4 226.3-49 8.8-85.6 51.4-85.6 102.5 0 51.8 38.6 95.3 88.5 103 45.5 130.6 167 217.5 306.5 217.5 10.7 0 19.4-8.7 19.4-19.4S515 650 504.3 650c-126.7 0-236.6-81.4-273.5-202.5-2.5-8.1-9.8-13.6-18.3-13.8-35.5-0.5-64.4-29.9-64.4-65.4 0-35.1 27.5-63.8 62.6-65.3 8.4-0.4 15.7-6.1 17.9-14.3 33.8-123.9 147.2-210.4 275.7-210.4S746.1 164.8 780 288.6c2.3 8.3 9.7 14.1 18.3 14.3 35.3 0.8 64 30.1 64 65.4 0 35.6-28.8 63.5-65.5 63.5-8.6 0-16.1 5.6-18.6 13.9-11.7 39.3-31.3 74.9-58.4 106-7 8.1-6.2 20.3 1.9 27.4 8.1 7 20.3 6.2 27.4-1.9 27.7-31.8 48.6-68 62.1-107.5 51.4-6.7 89.8-48.8 89.8-101.4 0-51.3-38.1-94.7-87.5-102.8-42.5-133.7-167.8-226-309.2-226zM575.3 501.8c-34.5 0-67.8 14.2-91.9 39.8-7.3 7.8-6.9 20.1 0.9 27.4 7.8 7.3 20.1 6.9 27.4-0.9 19.9-21.2 48.9-31.1 77.6-26.5 47.5 7.7 79.9 52.6 72.3 100.1-7.7 47.5-52.6 79.9-100.1 72.3-10.6-1.7-20.5 5.5-22.2 16.1-1.7 10.6 5.5 20.5 16.1 22.2C624 763.4 688.9 716.6 700 647.9c11.1-68.6-35.7-133.5-104.4-144.6-6.9-0.9-13.6-1.5-20.3-1.5zM360.1 348c-21.7 0-39.4 17.7-39.4 39.4s17.7 39.4 39.4 39.4 39.4-17.7 39.4-39.4c0.1-21.7-17.6-39.4-39.4-39.4zM648.6 348c-21.7 0-39.4 17.7-39.4 39.4s17.7 39.4 39.4 39.4 39.4-17.7 39.4-39.4-17.6-39.4-39.4-39.4zM500.9 130.4c-66.1 0-127.7 35.6-160.8 92.8-5.4 9.3-2.2 21.1 7.1 26.5 9.3 5.4 21.1 2.2 26.5-7.1 26.2-45.3 75-73.5 127.2-73.5s101 28.1 127.2 73.4c5.4 9.3 17.3 12.4 26.5 7.1 9.3-5.4 12.4-17.2 7.1-26.5-33.1-57.1-94.7-92.7-160.8-92.7z"  horiz-adv-x="1024" />

    
    <glyph glyph-name="yujian" unicode="&#59478;" d="M866.609936 887.112315c-44.288336 10.633271-89.390702 8.725387-134.365876 8.750826-145.914931 0-291.880738 0.025438-437.821107 0-46.043589-0.025438-92.21437 1.933322-137.647436-8.547318C85.624181 859.816862 36.197279 810.542591 8.749195 739.31494-1.680568 695.026604 0.100123 649.924238 0.176439 604.974502c0.381577-183.360324 0.890346-366.720649 1.322799-550.106412 1.348238-8.19118 0.48333-16.102537 4.197344-24.573539 35.944525-81.682853 95.266983-135.383414 183.004186-155.963117 215.336452-2.95086 430.698343-2.543845 646.034794-0.203508 4.731551 2.187706 9.234156 5.291197 14.270969 6.435927 77.30744 16.942006 126.836096 66.139962 158.583277 136.09569 12.185016 33.680504 15.975345 68.45486 15.873591 104.297632-0.610523 174.991075-0.228946 349.982151-0.381577 524.998665-0.025438 22.462149-1.424553 44.975174-2.111391 67.462761-22.055133 83.997751-73.440796 141.921095-154.360495 173.693714z m-356.748778-903.573629c-27.270015 0.839469-47.544457 25.71827-40.726953 53.497053 6.868381 28.058607 16.840252 55.328622 25.769147 82.87846 2.747352 8.471003 7.606096 16.127975 18.035859 15.135876 8.420126-0.788592 12.642908-7.428026 15.034122-14.90693 8.750826-27.575276 18.900766-54.845291 25.565639-82.980213 6.919258-29.406844-14.881491-54.54003-43.677814-53.624246z m292.440385 418.258942c-45.000612-10.582394-89.975786-21.164788-134.620261-32.968227-76.16271-20.096373-124.724705-68.429422-145.558792-144.693886-1.984199-7.300834 0.915784-20.47795-11.269232-19.740234-10.913094 0.635961-8.496441 13.278869-10.607832 20.859526-20.63058 74.916226-68.378545 122.893136-143.167579 142.964071-48.765502 13.1008-98.014335 24.344594-147.186853 35.893648-68.225914 16.000783-107.884453 59.983858-115.719494 129.303625C77.840017 678.186352 182.061333 792.201471 318.767546 779.075232c41.083092-3.917521 75.145172-23.352494 107.808138-47.188319 53.751438-39.175208 117.322117-39.3024 170.590224 0.81403 68.938191 51.894431 142.302671 65.249616 220.296949 25.438447 79.444269-40.523446 107.884453-112.361619 112.336181-184.047162 0.152631-102.796763-38.997139-151.511389-127.497495-172.2946zM817.462857 758.113952c-77.994278 39.811169-151.358758 26.481423-220.296949-25.438447-53.268108-40.141869-116.813348-39.989238-170.590224-0.81403-32.662966 23.861263-66.725046 43.270798-107.808138 47.188319-136.706213 13.151677-240.927529-100.863441-224.54517-245.608204 7.835042-69.319767 47.49358-113.302842 115.719495-129.303625 49.172518-11.549055 98.421351-22.792848 147.186853-35.893649 74.763595-20.070935 122.536998-68.047845 143.167578-142.964071 2.085953-7.580657-0.305261-20.223565 10.607833-20.859526 12.185016-0.712277 9.285033 12.4394 11.269232 19.740235 20.808649 76.239025 69.396083 124.572074 145.558792 144.693885 44.644474 11.803439 89.619648 22.385833 134.620261 32.968227 88.500356 20.757773 127.650126 69.472398 127.497495 172.243723-4.502605 71.685543-32.942789 143.523717-112.387058 184.047163zM527.947894 120.117706c-2.391214 7.478903-6.613996 14.118338-15.034122 14.90693-10.429763 0.992099-15.288507-6.664873-18.035859-15.135876-8.928895-27.549838-18.900766-54.819853-25.769146-82.878459-6.817504-27.778784 13.456938-52.632146 40.726953-53.497054 28.796322-0.915784 50.622509 24.217401 43.652375 53.598808-6.639435 28.160361-16.789375 55.430376-25.540201 83.005651z m-15.72096-122.66419c-18.137613-0.152631-27.931415 10.735025-27.524399 28.33843 0.407015 16.585867 11.421863 24.802486 27.549837 24.72617 16.814813-0.152631 24.24284-10.887655 26.812123-24.929678-2.543845-17.043759-10.175379-27.905976-26.837561-28.134922zM512.277811 50.518116c-16.127975 0.076315-27.142823-8.114865-27.549838-24.72617-0.407015-17.603405 9.386787-28.49106 27.524399-28.33843 16.662183 0.228946 24.293717 11.116601 26.837562 28.109484-2.569283 14.067461-9.99731 24.802486-26.812123 24.955116z"  horiz-adv-x="1029" />

    
    <glyph glyph-name="like" unicode="&#58921;" d="M679.643429 723.090286c129.389714 0 234.642286-108.178286 234.642285-241.078857 0-55.954286-18.944-110.08-53.540571-153.380572l-301.494857-316.489143a64.877714 64.877714 0 0 0-94.500572 0L165.302857 326.43657099999996A246.930286 246.930286 0 0 0 109.714286 482.011429c0 132.900571 105.325714 241.078857 234.642285 241.078857 63.195429 0 123.684571-26.038857 167.643429-72.411429a231.131429 231.131429 0 0 0 167.643429 72.411429z"  horiz-adv-x="1024" />

    
    <glyph glyph-name="cainixihuan1" unicode="&#58880;" d="M294.144 327.13599999999997a13.6 13.6 0 0 1 1.344-1.664l154.56-164.928c33.952-39.968 90.72-39.968 125.12 0.48l153.6 164.864a140.16 140.16 0 0 1 3.776 4.032l2.272 2.432a13.536 13.536 0 0 1 1.792 2.368c20.48 25.6 31.392 57.696 31.392 92.832a148.448 148.448 0 0 1-256 102.304 148.448 148.448 0 0 1-256-102.304c0-37.12 14.08-73.408 38.144-100.416zM512-32C282.24-32 96 154.24 96 384S282.24 800 512 800s416-186.24 416-416-186.24-416-416-416z"  horiz-adv-x="1024" />

    
    <glyph glyph-name="jiaoyou_moren" unicode="&#58886;" d="M471.04 773.12c196.608 0 358.4-137.216 358.4-307.2S667.648 158.72 471.04 158.72c-16.384 0-32.768 2.048-53.248 4.096l-20.48 2.048-18.432-10.24-104.448-57.344v110.592l-26.624 18.432C161.792 283.648 112.64 371.712 112.64 465.92c0 169.984 161.792 307.2 358.4 307.2m0 61.44C239.616 834.56 51.2 668.672 51.2 465.92c0-118.784 63.488-225.28 163.84-290.816V-5.12l194.56 106.496c20.48-2.048 38.912-4.096 61.44-4.096 231.424 0 419.84 165.888 419.84 368.64S702.464 834.56 471.04 834.56zM665.6 506.88c-28.672 0-51.2-22.528-51.2-51.2s22.528-51.2 51.2-51.2 51.2 22.528 51.2 51.2-22.528 51.2-51.2 51.2z m-184.32 0c-28.672 0-51.2-22.528-51.2-51.2s22.528-51.2 51.2-51.2 51.2 22.528 51.2 51.2-22.528 51.2-51.2 51.2z m-204.8 0c-28.672 0-51.2-22.528-51.2-51.2s22.528-51.2 51.2-51.2 51.2 22.528 51.2 51.2-22.528 51.2-51.2 51.2zM876.544-70.656l-186.368 71.68c-12.288-2.048-22.528-2.048-30.72-2.048-34.816 0-69.632 6.144-102.4 16.384-16.384 6.144-24.576 22.528-20.48 38.912 6.144 16.384 22.528 24.576 38.912 20.48 26.624-8.192 55.296-12.288 83.968-12.288 10.24 0 20.48 0 32.768 2.048h8.192l116.736-45.056v94.208l10.24 8.192c40.96 36.864 65.536 83.968 65.536 135.168 0 16.384-2.048 32.768-6.144 47.104-4.096 16.384 4.096 32.768 20.48 38.912 16.384 4.096 32.768-4.096 38.912-20.48 6.144-20.48 10.24-43.008 10.24-65.536 0-63.488-26.624-124.928-75.776-169.984v-157.696z"  horiz-adv-x="1024" />

    
    <glyph glyph-name="paihangbang_fuzhi" unicode="&#58883;" d="M605.80977778 771.29955555c0 14.41185223 11.5294811 25.94133333 25.78963001 25.94133334h103.61362887c14.26014777 0 25.78963001-11.5294811 25.78963001-25.94133334v-776.72296334c0-14.41185223-11.5294811-25.94133333-25.78963001-25.94133333H631.75111112c-6.82666667 0-13.50163001 2.73066667-18.35614778 7.58518557-4.8545189 4.8545189-7.58518557 11.37777778-7.58518556 18.35614776v776.72296334z m-51.73096334 0v-776.72296334c0-42.93214777 34.74014777-77.67229667 77.67229668-77.67229554h103.61363c20.63170333 0 40.35318557 8.192 54.91673998 22.75555556 14.56355555 14.56355555 22.75555555 34.28503666 22.75555556 54.91673998v776.72296334c0 42.93214777-34.74014777 77.67229667-77.67229554 77.67229668H631.75111112c-20.63170333 0-40.35318557-8.192-54.91674112-22.75555556-14.56355555-14.56355555-22.75555555-34.28503666-22.75555556-54.91674112zM295.12059222 460.91377778c0 6.82666667 2.73066667 13.34992555 7.58518556 18.20444444 4.8545189 4.8545189 11.37777778 7.4334811 18.20444444 7.43348111h103.61363002c14.26014777 0 25.78963001-11.5294811 25.78962886-25.63792555v-466.48888889c0-6.82666667-2.73066667-13.34992555-7.58518442-18.20444444-4.8545189-4.8545189-11.37777778-7.4334811-18.20444444-7.43348111h-103.61363002c-6.82666667 0-13.34992555 2.73066667-18.20444444 7.43348111-4.8545189 4.8545189-7.58518557 11.37777778-7.58518556 18.20444444V460.91377778z m-51.73096221 0v-466.48888889c0-20.63170333 8.192-40.2014811 22.75555556-54.76503666 14.56355555-14.56355555 34.28503666-22.60385223 54.91673998-22.60385223h103.61363001c20.63170333 0 40.35318557 8.04029667 54.91674112 22.60385223 14.56355555 14.56355555 22.75555555 34.28503666 22.75555556 54.76503666V460.91377778c0 20.63170333-8.192 40.2014811-22.75555556 54.76503665-14.56355555 14.56355555-34.28503666 22.60385223-54.91674112 22.60385224h-103.61363001c-20.63170333 0-40.35318557-8.04029667-54.91673998-22.60385224-14.56355555-14.56355555-22.75555555-34.28503666-22.75555556-54.76503665z m673.10933333-155.49629668c0 14.26014777 11.37777778 25.78963001 25.78962888 25.78963001H1045.90222222c14.26014777 0 25.78963001-11.5294811 25.78963002-25.78963001v-310.99259221c0-6.82666667-2.73066667-13.50163001-7.58518557-18.20444444-4.8545189-4.8545189-11.37777778-7.58518557-18.35614777-7.43348111h-103.61363001c-14.26014777 0-25.78963001 11.5294811-25.78963001 25.78962887V305.41748110000003z m-51.73096334 0v-310.99259221c0-42.78044445 34.74014777-77.52059221 77.67229668-77.52059222h103.61362887c20.63170333 0 40.35318557 8.04029667 54.91674112 22.6038511 14.56355555 14.56355555 22.75555555 34.28503666 22.75555555 54.91674112v310.99259221c0 42.78044445-34.74014777 77.52059221-77.67229667 77.52059335h-103.61362887c-20.63170333 0-40.35318557-8.04029667-54.91674112-22.60385223-14.56355555-14.56355555-22.75555555-34.28503666-22.75555556-54.91674112z m0 0"  horiz-adv-x="1365" />

    
    <glyph glyph-name="shouyinji" unicode="&#58979;" d="M832 625.6H390.4l342.4 96c8 1.6 12.8 11.2 11.2 19.2-3.2 8-11.2 12.8-19.2 11.2L272 624h-80c-44.8 0-80-35.2-80-80v-384c0-44.8 35.2-80 80-80h112v-38.4c0-6.4 4.8-12.8 12.8-12.8h6.4c8 0 14.4 6.4 12.8 12.8V80h350.4v-38.4c0-6.4 4.8-12.8 12.8-12.8h6.4c8 0 12.8 6.4 12.8 12.8V80H832c44.8 0 80 35.2 80 80V544c0 46.4-35.2 81.6-80 81.6z m48-464c0-27.2-20.8-48-48-48H192c-27.2 0-48 20.8-48 48v384c0 27.2 20.8 48 48 48h640c27.2 0 48-20.8 48-48v-384zM672 489.6c-38.4 1.6-75.2-11.2-104-36.8-28.8-25.6-44.8-60.8-48-99.2-3.2-80 57.6-147.2 136-150.4h8c35.2 0 70.4 12.8 96 36.8 28.8 25.6 44.8 60.8 48 99.2 4.8 78.4-57.6 147.2-136 150.4z m67.2-227.2c-22.4-20.8-51.2-30.4-80-28.8-30.4 1.6-57.6 14.4-76.8 36.8-20.8 22.4-30.4 51.2-28.8 80 1.6 30.4 14.4 57.6 36.8 76.8 22.4 20.8 51.2 30.4 80 28.8 62.4-3.2 108.8-56 105.6-116.8-1.6-28.8-14.4-56-36.8-76.8zM433.6 361.6H232c-9.6 0-16-6.4-16-16s6.4-16 16-16h201.6c9.6 0 16 6.4 16 16s-6.4 16-16 16zM433.6 265.6H232c-9.6 0-16-6.4-16-16s6.4-16 16-16h201.6c9.6 0 16 6.4 16 16s-6.4 16-16 16zM433.6 457.6H232c-9.6 0-16-6.4-16-16s6.4-16 16-16h201.6c9.6 0 16 6.4 16 16s-6.4 16-16 16zM809.6 518.4m-24 0a24 24 0 1 1 48 0 24 24 0 1 1-48 0Z"  horiz-adv-x="1024" />

    
    <glyph glyph-name="meirituijian-" unicode="&#58962;" d="M859.9 812.7h-49.7V849.9h-99.4v-37.2H313.2V849.9h-99.4v-37.2h-49.7c-54.9 0-98.9-44.5-98.9-99.4l-0.5-695.9c0-54.9 44.5-99.4 99.4-99.4H860c54.9 0 99.4 44.5 99.4 99.4V713.3c-0.1 55-44.6 99.4-99.5 99.4z m27-822.2H137.1V523H887v-532.5zM263.2 220.5h348.6v-72.4H263.2zM263.2 365.3h497.6v-72.4H263.2z"  horiz-adv-x="1024" />

    
    <glyph glyph-name="geshou" unicode="&#58942;" d="M715.787815 789.179077C642.437908 893.241108 502.478769 925.361231 391.097108 863.696738c-111.387569-61.672369-158.460062-197.330708-109.201723-314.738215 49.260308-117.403569 179.036554-178.8672 301.077661-142.595938 122.047015 36.271262 197.181046 158.641231 174.326154 283.884307-2.481231 13.560123-15.480123 22.539815-29.040246 20.060554-13.554215-2.481231-22.531938-15.482092-20.054646-29.040246 18.311877-100.204308-41.796923-198.110523-139.435323-227.138954-97.640369-29.026462-201.470031 20.143262-240.874339 114.071631-39.412185 93.934277-1.748677 202.4704 87.374769 251.793723 89.123446 49.3312 201.088 23.616985 259.761231-59.655877 7.945846-11.250215 23.514585-13.932308 34.772677-5.980554 11.252185 7.943877 13.934277 23.512615 5.982523 34.772677v0.049231z m245.051077-891.994585c0 178.063754-105.221908 339.296492-268.213169 410.992246-162.987323 71.691815-352.943262 40.292431-484.194461-80.037415-10.151385-9.312492-10.834708-25.093908-1.522216-35.245292s25.097846-10.836677 35.249231-1.522216a397.109169 397.109169 0 0 0 269.694031 104.918647 399.111877 399.111877 0 0 0 282.206523-116.897477 399.113846 399.113846 0 0 0 116.8896-282.208493c0-13.778708 11.169477-24.948185 24.948184-24.948184 13.774769 0 24.942277 11.169477 24.942277 24.948184zM167.620923 185.538954a447.233969 447.233969 0 0 1-104.763077-288.354462c0-13.778708 11.167508-24.948185 24.942277-24.948184 13.780677 0 24.948185 11.169477 24.948185 24.948184 0 95.082338 33.319385 184.930462 93.134769 256.273723 8.861538 10.549169 7.487015 26.289231-3.068062 35.1488-10.551138 8.855631-26.287262 7.481108-35.140923-3.068061h-0.053169z m0 0M486.902154 146.624985v-99.773047c0-13.7216 11.228554-24.950154 24.948184-24.950153 13.963815 0 24.944246 11.027692 24.944247 24.950153v99.773047c0 13.7216-11.228554 24.942277-24.944247 24.942277-13.969723 0-24.948185-11.025723-24.948184-24.942277z m-49.882585 0c0 41.310523 33.218954 74.830769 74.830769 74.830769 41.302646 0 74.826831-33.622646 74.826831-74.830769v-99.773047c0-41.310523-33.218954-74.834708-74.826831-74.834707-41.308554 0-74.830769 33.624615-74.830769 74.834707v99.773047z m0 0M486.902154-3.040492v-99.775016c0-13.778708 11.167508-24.948185 24.948184-24.948184 13.774769 0 24.944246 11.169477 24.944247 24.948184v99.775016c0 8.9088-4.757662 17.146092-12.471139 21.602461a24.940308 24.940308 0 0 1-24.948184 0 24.954092 24.954092 0 0 1-12.473108-21.602461z m0 0"  horiz-adv-x="1024" />

    
    <glyph glyph-name="yonghu" unicode="&#58974;" d="M619.064182 391.42029c91.163561 42.401656 154.766046 133.565217 154.766046 239.569358C773.830228 777.275362 655.10559 896 508.819876 896S243.809524 777.275362 243.809524 630.989648c0-106.004141 63.602484-197.167702 154.766045-239.569358C169.606625 340.538302 0 137.010352 0-106.799172v-21.200828h1017.639752v21.200828c0 243.809524-169.606625 447.337474-398.57557 498.219462zM286.21118 630.989648C286.21118 753.954451 385.855072 853.598344 508.819876 853.598344s222.608696-99.643892 222.608695-222.608696S631.784679 408.380952 508.819876 408.380952s-222.608696 99.643892-222.608696 222.608696zM42.401656-85.598344c10.600414 248.049689 216.248447 445.217391 466.41822 445.217392s455.817805-197.167702 466.418219-445.217392H42.401656z"  horiz-adv-x="1024" />

    
    <glyph glyph-name="lingsheng1" unicode="&#58901;" d="M849.027282 289.371897V558.972718C849.027282 744.342974 697.370256 896 512 896 326.629744 896 174.972718 744.342974 174.972718 558.972718v-269.600821L40.172308 19.744821h306.674871c16.856615-77.508923 84.283077-134.80041 165.152821-134.800411s148.296205 57.291487 165.152821 134.800411h306.674871l-134.80041 269.627076zM512-47.655385c-43.821949 0-80.869744 26.965333-94.365538 67.400206h188.731076c-13.469538-40.434872-50.54359-67.400205-94.365538-67.400206zM141.259487 87.145026l101.113436 202.226871V558.972718C242.372923 707.268923 363.703795 828.599795 512 828.599795s269.627077-121.330872 269.627077-269.627077v-269.600821l101.087179-202.226871H141.285744z"  horiz-adv-x="1024" />

    
    <glyph glyph-name="gengduo2" unicode="&#59116;" d="M384 768v-256H128V768h256m0 64H128a64 64 0 0 1-64-64v-256a64 64 0 0 1 64-64h256a64 64 0 0 1 64 64V768a64 64 0 0 1-64 64z m0-576v-256H128V256h256m0 64H128a64 64 0 0 1-64-64v-256a64 64 0 0 1 64-64h256a64 64 0 0 1 64 64V256a64 64 0 0 1-64 64z m192-192a192 192 0 1 1 384 0 192 192 0 1 1-384 0z m192 128a128 128 0 1 0-128-128 128 128 0 0 0 128 128m0 64a192 192 0 1 1 192-192 192 192 0 0 1-192 192z m128 448v-256H640V768h256m0 64H640a64 64 0 0 1-64-64v-256a64 64 0 0 1 64-64h256a64 64 0 0 1 64 64V768a64 64 0 0 1-64 64z"  horiz-adv-x="1024" />

    
    <glyph glyph-name="icon-test1" unicode="&#58881;" d="M730.65333333 754.88777777c-5.87777777 5.87777777-12.93111111 8.81666667-21.16 8.81666667-8.22888889 0-15.28222223-2.93888889-21.16-8.81666667L536.68666667 603.24111111c-5.87777777-5.87777777-8.81666667-12.93111111-8.81666667-21.16s2.93888889-15.87 8.81666667-21.16l152.23444444-152.23444444c5.87777777-5.87777777 12.93111111-8.81666667 21.16-8.81666667s15.28222223 2.93888889 21.16 8.81666667l152.23444445 152.23444444c5.87777777 5.87777777 8.81666667 12.93111111 8.81666667 21.16s-2.93888889 15.28222223-8.81666667 21.16l-152.82222223 151.64666666zM905.22333333 625.57666667L752.98888889 777.2233333300001c-11.75555556 12.34333333-27.62555556 18.22111111-43.49555556 18.22111111s-31.74-5.87777777-43.49555556-18.22111111L514.35111111 625.57666667c-24.09888889-24.09888889-24.09888889-62.89222223 0-86.99111111l152.23444445-152.23444445c11.75555556-11.75555556 27.62555556-18.22111111 43.49555555-18.22111111s31.74 5.87777777 43.49555556 18.22111111l152.23444444 152.23444445c23.51111111 24.09888889 23.51111111 62.89222223-0.58777778 86.99111111z m-22.33555556-64.65555556l-152.23444444-152.23444444c-5.87777777-5.87777777-12.93111111-8.81666667-21.16-8.81666667s-15.28222223 2.93888889-21.16 8.81666667L536.68666667 560.9211111100001c-5.87777777 5.87777777-8.81666667 12.93111111-8.81666667 21.16s2.93888889 15.28222223 8.81666667 21.16l152.23444444 152.23444445c5.87777777 5.87777777 12.93111111 8.81666667 21.16 8.81666667 8.22888889 0 15.28222223-2.93888889 21.16-8.81666667l152.23444445-152.23444445c5.87777777-5.87777777 8.81666667-12.93111111 8.81666667-21.16s-3.52666667-15.87-9.40444446-21.16zM385.62777777 288.78H164.03555556c-17.63333333 0-31.74-14.10666667-31.74-31.74v-221.59222223c0-17.63333333 14.10666667-31.74 31.74-31.74h221.59222221c17.63333333 0 31.74 14.10666667 31.74 31.74v221.59222223c0 17.63333333-14.10666667 31.74-31.74 31.74zM385.62777777 320.52H164.03555556c-34.67888889 0-63.48-28.21333333-63.48-62.89222223v-221.59222221c0-35.26666667 28.80111111-63.48 63.48-63.48h221.59222221c34.67888889 0 63.48 28.21333333 63.48 63.48v221.59222221c0 34.67888889-28.80111111 62.89222223-63.48 62.89222223z m31.74-284.48444444c0-17.63333333-14.10666667-31.74-31.74-31.74H164.03555556c-17.63333333 0-31.74 14.10666667-31.74 31.74v221.59222221c0 17.63333333 14.10666667 31.74 31.74 31.74h221.59222221c17.63333333 0 31.74-14.10666667 31.74-31.74v-221.59222221zM812.94222223 288.78H591.35c-17.63333333 0-31.74-14.10666667-31.74-31.74v-221.59222223c0-17.63333333 14.10666667-31.74 31.74-31.74h221.59222223c17.63333333 0 31.74 14.10666667 31.74 31.74v221.59222223a32.32777777 32.32777777 0 0 1-31.74 31.74zM812.94222223 320.52H591.35c-34.67888889 0-63.48-28.21333333-63.48-63.48v-221.59222223c0-34.67888889 28.21333333-63.48 63.48-63.48h221.59222223c34.67888889 0 63.48 28.21333333 63.48 63.48v221.59222223c-0.58777777 35.26666667-28.80111111 63.48-63.48 63.48z m31.15222221-284.48444444c0-17.63333333-14.10666667-31.74-31.74-31.74H591.35c-17.63333333 0-31.74 14.10666667-31.74 31.74v221.59222221c0 17.63333333 14.10666667 31.74 31.74 31.74h221.59222223c17.63333333 0 31.74-14.10666667 31.74-31.74v-221.59222221zM385.62777777 716.09444444H164.03555556c-17.63333333 0-31.74-14.10666667-31.74-31.74v-221.59222221c0-17.63333333 14.10666667-31.74 31.74-31.74h221.59222221c17.63333333 0 31.74 14.10666667 31.74 31.74V684.35444444c0 17.63333333-14.10666667 31.74-31.74 31.74zM385.62777777 747.83444444H164.03555556C129.35666667 747.83444444 100.55555556 719.62111111 100.55555556 684.35444444v-221.59222221c0-34.67888889 28.21333333-63.48 63.48-63.48h221.59222221c34.67888889 0 63.48 28.21333333 63.48 63.48V684.35444444c0 35.26666667-28.80111111 63.48-63.48 63.48z m31.74-285.07222221c0-17.63333333-14.10666667-31.74-31.74-31.74H164.03555556c-17.63333333 0-31.74 14.10666667-31.74 31.74V684.35444444c0 17.63333333 14.10666667 31.74 31.74 31.74h221.59222221c17.63333333 0 31.74-14.10666667 31.74-31.74v-221.59222221z"  horiz-adv-x="1024" />

    
    <glyph glyph-name="airudiantubiaohuizhi-zhuanqu_yujianjiayuan" unicode="&#59038;" d="M942.9 410.7c-6.9 61.3-38.8 116-85.3 146.2-40.1 26-88.1 32.1-135 17.2-37.2-11.8-66.8-34-86.9-64.7 3.2 14.5 6.9 35.3 5.4 46.9-2.5 19.1-18.6 33.4-37.2 27.1-18.5-6.3-18.6-25-18.6-25s-17.7 6.1-29.7-9.4c-5.9-7.6-6.9-16.2-4.4-24-16.9 2-32.5 1.5-45.8-0.1-17-2-31.9-6-43.6-10-4.6 11.5-11.3 25.4-20.8 39.6-21.6 32.3-62.4 73-134 82.9-57.7 8-112.3-8.7-153.8-47-48.3-44.6-74.6-115.1-70.4-188.4C90 278.6 210.2 28.3 215.3 17.7c4.2-8.8 13.1-14.1 22.5-14.1 2.1 0 4.3 0.3 6.4 0.8 8.3 2.2 198.7 52.8 318 112.8C665 78.7 853.8 61.7 862.6 61c0.7-0.1 1.5-0.1 2.2-0.1 11.1 0 20.9 7.3 24 18.1 2.7 9.3 65.5 229.8 54.1 331.7z m-810.2-5.8c-3.4 58.5 17 114.1 54.5 148.8 30.7 28.4 69.8 40.2 113 34.2 42.1-5.8 75.2-25.9 98.3-59.7 17.6-25.7 23-50.5 23.2-51.8 1.5-8 6.7-14.6 14-18 7.4-3.4 15.9-3 23 1.1 0.8 0.4 72 40.1 142.9-4.4-7.1 0.5-14.8 0.7-23.1 0.3-47.1-2.4-88-23.7-118.2-61.4-30.8-38.4-42.3-85.4-32.4-132.2 9.5-44.9 38.2-86.4 78.7-115.5-90.7-40.3-208.7-75-255.1-88-28 60.4-113.2 251.3-118.8 346.6z m713.6-292.1c-54.1 5.7-200.5 23.5-274.7 54.3-0.7 0.3-1.4 0.6-2.2 0.9-4.5 1.9-8.8 3.9-12.7 6-41.6 21.6-71.5 58.3-79.9 98.1-6.8 32.3 1 63.6 22.5 90.6 28.1 35 62.8 43 88.5 43 20.1 0 34.7-4.8 36.4-5.5 7.6-2.8 16-1.8 22.7 2.8 6.7 4.6 10.7 12.2 10.8 20.3 0 0.8 2.3 78.4 79.9 103 32.9 10.5 64.9 6.5 92.6-11.5 34.1-22.1 57.6-63.2 62.9-109.8 8.6-75.5-31.7-235.8-46.8-292.2zM507.6 617.3c15.8 11 21.1 31.8 7.1 45.5-14.1 13.6-30.7 5-30.7 5s-2.7 18.5-21.9 22.1c-19.3 3.5-33.2-12.9-32.9-32.2 0.3-19.3 18.2-61 18.2-61s44.3 9.7 60.2 20.6zM569.1 705.6c17.3-8.6 62.6-11.8 62.6-11.8s11.8 43.9 9.3 63-18.6 33.4-37.2 27.1-18.6-25-18.6-25-17.7 6.1-29.7-9.4-3.6-35.4 13.6-43.9z"  horiz-adv-x="1024" />

    
    <glyph glyph-name="songbook_store" unicode="&#58988;" d="M512-49.230769C271.753846-49.230769 78.769231 143.753846 78.769231 384S271.753846 817.230769 512 817.230769s433.230769-192.984615 433.230769-433.230769-192.984615-433.230769-433.230769-433.230769z m0 39.384615c216.615385 0 393.846154 177.230769 393.846154 393.846154S728.615385 777.846154 512 777.846154 118.153846 600.615385 118.153846 384s177.230769-393.846154 393.846154-393.846154zM220.553846 263.876923c-3.938462 9.846154 0 21.661538 9.846154 25.6 9.846154 3.938462 21.661538 0 25.6-9.846154 27.569231-66.953846 80.738462-122.092308 147.692308-149.661538 9.846154-3.938462 13.784615-15.753846 9.846154-25.6-3.938462-9.846154-15.753846-13.784615-25.6-9.846154-74.830769 31.507692-135.876923 92.553846-167.384616 169.353846zM512 285.538462c-55.138462 0-98.461538 43.323077-98.461538 98.461538s43.323077 98.461538 98.461538 98.461538 98.461538-43.323077 98.461538-98.461538-43.323077-98.461538-98.461538-98.461538z m0 39.384615c33.476923 0 59.076923 25.6 59.076923 59.076923s-25.6 59.076923-59.076923 59.076923-59.076923-25.6-59.076923-59.076923 25.6-59.076923 59.076923-59.076923z"  horiz-adv-x="1024" />

    
    <glyph glyph-name="jia1" unicode="&#60314;" d="M803.06154-20.737044H222.459093c-63.663972 0-115.458615 51.794643-115.458615 115.458615V675.319925c0 63.669088 51.794643 115.463732 115.458615 115.463732h580.602447c63.663972 0 115.458615-51.794643 115.458615-115.463732v-580.597331c0-63.664995-51.794643-115.459638-115.458615-115.459638z m-580.602447 746.225579c-27.665083 0-50.164516-22.50455-50.164517-50.16861v-580.597331c0-27.659967 22.499433-50.164516 50.164517-50.164516h580.602447c27.665083 0 50.164516 22.50455 50.164517 50.164516V675.319925c0 27.665083-22.499433 50.16861-50.164517 50.16861H222.459093zM713.308377 352.375745H312.212256c-18.027585 0-32.647561 14.615882-32.647561 32.647561 0 18.031679 14.619976 32.647561 32.647561 32.647561h401.096121c18.027585 0 32.647561-14.615882 32.647561-32.647561 0-18.031679-14.619976-32.647561-32.647561-32.647561zM480.113267 184.474734V585.570855c0 18.027585 14.615882 32.647561 32.647561 32.647561 18.031679 0 32.647561-14.619976 32.647561-32.647561v-401.096121c0-18.027585-14.615882-32.647561-32.647561-32.647561-18.031679 0.001023-32.647561 14.620999-32.647561 32.647561z"  horiz-adv-x="1024" />

    
    <glyph glyph-name="duihuakuang1" unicode="&#58993;" d="M187.379486 555.968378a48.491111 48.491111 0 0 0 96.982222 0c0-26.936867-21.549493-49.094459-48.457855-49.094459s-48.457855 22.14809-48.457856 49.094459z m194.563041 0a48.491111 48.491111 0 0 0 96.982222 0c0-26.936867-21.549493-49.094459-48.457856-49.094459s-48.457855 22.14809-48.457855 49.094459z m341.228816-340.639721h-49.683554v48.457855h55.108934c23.354786 0 41.911294 21.549493 41.911294 48.457856V795.426196c0 26.936867-18.556508 52.077942-41.911294 52.077942H132.308559c-23.354786 0-41.911294-25.141076-41.911294-52.077942v-482.51672c0-26.936867 18.556508-48.457855 41.911294-48.457856H511.87609v-0.598597a22.984226 22.984226 0 0 0 14.964926-7.781761l87.414171-98.179416a24.162417 24.162417 0 1 0-35.915822-32.305237l-79.622908 89.20046H138.883625C86.207085 214.739561 42.5 262.028727 42.5 320.102142V790.63742C41.891901 848.710834 85.00039 896 138.285028 896H723.760439c52.686041 0 95.785028-47.289166 95.785027-105.36258v-469.936681c0-58.073414-43.098987-105.372082-96.383624-105.372082zM576.486564 555.968378a48.491111 48.491111 0 0 0 96.982222 0c0-26.936867-21.558995-49.094459-48.457856-49.094459s-48.457855 22.14809-48.457855 49.094459z m0 0"  horiz-adv-x="1064" />

    
    <glyph glyph-name="leimupinleifenleileibie" unicode="&#58885;" d="M320 384L192 384c-70.4 0-128-57.6-128-128l0-128c0-70.4 57.6-128 128-128l128 0c70.4 0 128 57.6 128 128l0 128C448 326.4 390.4 384 320 384zM384 128c0-35.2-28.8-64-64-64L192 64c-35.2 0-64 28.8-64 64l0 128c0 35.2 28.8 64 64 64l128 0c35.2 0 64-28.8 64-64L384 128zM768 832l-128 0C569.6 832 512 774.4 512 704l0-128c0-70.4 57.6-128 128-128l128 0c70.4 0 128 57.6 128 128L896 704C896 774.4 838.4 832 768 832zM832 576c0-35.2-28.8-64-64-64l-128 0C604.8 512 576 540.8 576 576L576 704c0 35.2 28.8 64 64 64l128 0c35.2 0 64-28.8 64-64L832 576zM768 384l-128 0c-70.4 0-128-57.6-128-128l0-128c0-70.4 57.6-128 128-128l128 0c70.4 0 128 57.6 128 128l0 128C896 326.4 838.4 384 768 384zM832 128c0-35.2-28.8-64-64-64l-128 0c-35.2 0-64 28.8-64 64l0 128c0 35.2 28.8 64 64 64l128 0c35.2 0 64-28.8 64-64L832 128zM320 832L192 832C121.6 832 64 774.4 64 704l0-128c0-70.4 57.6-128 128-128l128 0c70.4 0 128 57.6 128 128L448 704C448 774.4 390.4 832 320 832zM384 576c0-35.2-28.8-64-64-64L192 512C156.8 512 128 540.8 128 576L128 704c0 35.2 28.8 64 64 64l128 0c35.2 0 64-28.8 64-64L384 576z"  horiz-adv-x="1024" />

    


  </font>
</defs>
</svg>
